<svg width="14" height="14" viewBox="0 0 14 14" fill="none" xmlns="http://www.w3.org/2000/svg">
<path d="M10.3333 2.99998H13.6666V4.33331H12.3333V13C12.3333 13.1768 12.2631 13.3464 12.1381 13.4714C12.013 13.5964 11.8435 13.6666 11.6666 13.6666H2.33331C2.1565 13.6666 1.98693 13.5964 1.86191 13.4714C1.73688 13.3464 1.66665 13.1768 1.66665 13V4.33331H0.333313V2.99998H3.66665V0.99998C3.66665 0.823169 3.73688 0.653599 3.86191 0.528575C3.98693 0.403551 4.1565 0.333313 4.33331 0.333313H9.66665C9.84346 0.333313 10.013 0.403551 10.1381 0.528575C10.2631 0.653599 10.3333 0.823169 10.3333 0.99998V2.99998ZM11 4.33331H2.99998V12.3333H11V4.33331ZM4.99998 1.66665V2.99998H8.99998V1.66665H4.99998Z" fill="#262626"/>
</svg>
