<svg width="13" height="13" viewBox="0 0 13 13" fill="none" xmlns="http://www.w3.org/2000/svg">
<path d="M9.17133 1.00002L7.838 2.33336H1.33333V11.6667H10.6667V5.16202L12 3.82869V12.3334C12 12.5102 11.9298 12.6797 11.8047 12.8048C11.6797 12.9298 11.5101 13 11.3333 13H0.666667C0.489856 13 0.320286 12.9298 0.195262 12.8048C0.0702379 12.6797 0 12.5102 0 12.3334V1.66669C0 1.48988 0.0702379 1.32031 0.195262 1.19529C0.320286 1.07026 0.489856 1.00002 0.666667 1.00002H9.17133ZM11.6567 0.400024L12.6 1.34402L6.472 7.47202L5.53067 7.47402L5.52933 6.52936L11.6567 0.400024Z" fill="#262626"/>
</svg>
